<svg fill="#000000" xmlns="http://www.w3.org/2000/svg" viewBox="0 0 50 50" width="50px" height="50px"><path d="M 7.3847656 1 C 5.3607656 1 4 2.4607656 4 4.6347656 L 4 45.363281 C 4 47.538281 5.3607656 49 7.3847656 49 C 8.4927656 49 9.2377187 48.700906 10.011719 48.253906 L 44.769531 28.361328 C 45.320531 28.043328 47 27.078 47 25 C 47 22.92 45.321531 21.954719 44.769531 21.636719 L 42.203125 20.162109 C 39.90096 12.564756 32.841808 7.0195313 24.5 7.0195312 C 23.002786 7.0195312 21.554957 7.2177954 20.160156 7.5546875 L 10.015625 1.7460938 C 9.237625 1.2980937 8.4927656 1 7.3847656 1 z M 24.5 9.0195312 C 33.624562 9.0195312 41 16.394969 41 25.519531 C 41 26.493175 40.895981 27.43927 40.734375 28.365234 L 33.681641 32.402344 C 35.130275 30.478462 36 28.093634 36 25.5 C 36 19.149 30.851 14 24.5 14 C 18.149 14 13 19.149 13 25.5 C 13 31.851 18.149 37 24.5 37 C 24.932884 37 25.358831 36.972374 25.779297 36.925781 L 18.708984 40.972656 C 12.45608 38.628715 8 32.602733 8 25.519531 C 8 16.394969 15.375438 9.0195314 24.5 9.0195312 z M 25 19 L 29 19 L 29 21.875 L 26.5 21.875 L 26.5 28.375 C 26.5 29.836 25.111 31 23.625 31 C 22.168 31 21 29.825937 21 28.335938 C 21 26.874938 22.17025 25.673828 23.65625 25.673828 C 24.14225 25.673828 24.6 25.815922 25 26.044922 L 25 19 z"/></svg>