<?xml version="1.0" ?><!DOCTYPE svg  PUBLIC '-//W3C//DTD SVG 1.1//EN'  'http://www.w3.org/Graphics/SVG/1.1/DTD/svg11.dtd'><svg height="512px" style="enable-background:new 0 0 512 512;" version="1.1" viewBox="0 0 512 512" width="512px" xml:space="preserve" xmlns="http://www.w3.org/2000/svg" xmlns:xlink="http://www.w3.org/1999/xlink"><g id="comp_x5F_224-napster"><g><path d="M302.686,354.414c-13.171,12.616-29.033,22.355-46.749,28.293c-17.624-5.938-33.578-15.677-46.657-28.293H302.686z     M343.499,169.271c18.553-15.676,40.444-27.085,64.562-33.578v149.525c0,203.513-304.248,201.841-304.248,0.279V135.599    c24.024,6.4,46.009,18.18,64.467,33.765C220.967,132.259,291.185,132.353,343.499,169.271z M149.822,115.007    c59.735-55.656,152.401-55.748,212.323-0.187c-6.587,3.246-12.895,6.771-19.108,10.667    c-54.449-28.291-119.843-28.199-174.292,0.093C162.9,121.871,155.85,117.975,149.822,115.007L149.822,115.007z M66.618,94.322    v64.28c-54.171,33.857-54.171,112.331,0.092,146.836c24.489,227.351,354.057,222.898,378.083,1.392l0.277-1.576    c54.449-33.673,54.635-112.887,0.187-146.744V94.322c-16.048,0.463-31.537,2.783-46.473,6.863    c-76.061-84.873-209.169-84.873-285.23,0.093C98.433,97.197,82.85,94.786,66.618,94.322z M266.418,334.379    c0,0,33.393-0.277,56.86-1.391c9.461-0.463,19.572-3.711,23.653-6.028c24.395-14.007,23.562-36.361,24.303-43.968    C297.493,282.437,278.567,279.373,266.418,334.379z M140.731,283.084c0.742,7.607-0.094,29.962,24.302,43.968    c4.081,2.318,14.1,5.566,23.653,6.029c23.468,1.021,56.86,1.392,56.86,1.392C233.304,279.373,214.288,282.437,140.731,283.084z     M297.585,397.548c-2.97-4.915-6.4-6.772-6.4-6.772c-23.006,6.772-48.419,6.402-70.403,0c0,0-2.69,1.394-5.937,6.125    c-2.597,3.802-3.433,8.902-3.433,8.902c26.993,16.326,62.24,16.326,89.234,0C300.552,405.711,300.367,402.095,297.585,397.548    L297.585,397.548z"/></g></g><g id="Layer_1"/></svg>